<svg width="60" height="60" viewBox="0 0 60 60" fill="none" xmlns="http://www.w3.org/2000/svg">
<path d="M60 30C60 46.5685 46.5685 60 30 60C13.4315 60 0 46.5685 0 30C0 13.4315 13.4315 0 30 0C46.5685 0 60 13.4315 60 30ZM3.32359 30C3.32359 44.733 15.267 56.6764 30 56.6764C44.733 56.6764 56.6764 44.733 56.6764 30C56.6764 15.267 44.733 3.32359 30 3.32359C15.267 3.32359 3.32359 15.267 3.32359 30Z" fill="#E1E6E9"/>
<line x1="20" y1="30" x2="39" y2="30" stroke="#1D9BF0" stroke-width="2"/>
<line x1="30" y1="21" x2="30" y2="39" stroke="#1D9BF0" stroke-width="2"/>
</svg>
