<svg width="60" height="60" viewBox="0 0 60 60" fill="none" xmlns="http://www.w3.org/2000/svg">
<g id="Group 1">
<path id="Ellipse 1" d="M60 30C60 46.5685 46.5685 60 30 60C13.4315 60 0 46.5685 0 30C0 13.4315 13.4315 0 30 0C46.5685 0 60 13.4315 60 30ZM3.32359 30C3.32359 44.733 15.267 56.6764 30 56.6764C44.733 56.6764 56.6764 44.733 56.6764 30C56.6764 15.267 44.733 3.32359 30 3.32359C15.267 3.32359 3.32359 15.267 3.32359 30Z" fill="#EBEBEB"/>
<path id="Ellipse 2" d="M60 30C60 46.5685 46.5685 60 30 60C13.4315 60 0 46.5685 0 30C0 13.4315 13.4315 0 30 0C46.5685 0 60 13.4315 60 30ZM3.32359 30C3.32359 44.733 15.267 56.6764 30 56.6764C44.733 56.6764 56.6764 44.733 56.6764 30C56.6764 15.267 44.733 3.32359 30 3.32359C15.267 3.32359 3.32359 15.267 3.32359 30Z" fill="#1D9BF0"/>
</g>
</svg>
